# xmcd
#
# Track frame offsets:
#	150
#	17265
#	33539
#	47377
#	66591
#	82661
#	94384
#	113171
#	125348
#	143060
#	156367
#	169433
#	182111
#	201184
#
# Disc length: 2927 seconds
#
# Revision: 3
# Processed by: cddbd v1.5.2PL0 Copyright (c) Steve Scherf et al.
# Submitted via: audiograbber 1.83.01
#
DISCID=bb0b6d0e
DTITLE=Various Artist - CDXMAS 1009B
DYEAR=1997
DGENRE=Christmas - Country
TTITLE0=Vince Vance and The Valiants - All I Want For Christmas Is You
TTITLE1=Doug Wayne - Almost Time For Christmas
TTITLE2=The Bellamy Brothers - Jinge Bells (A Cowboy's Holiday)
TTITLE3=The Bellamy Brothers - We All Get Crazy At Christmas
TTITLE4=Sandy Knox - Dear Santa
TTITLE5=The Geezinslaws - Lighten Up It's Christmas
TTITLE6=White Rose - The Christmas Wish
TTITLE7=Scooter Lee - Sexy Little Christmas Thang
TTITLE8=Scooter Lee - A Christmas Card
TTITLE9=Lewis and Lewis - Christmas, 1954
TTITLE10=Sally Ploger - Baby Jesus
TTITLE11=The Mississippi Skinny Dippers - Bah Humbug
TTITLE12=Various Artist - Make A Miracle
TTITLE13=Mindy McCready - Let's Talk About Love
EXTD=
EXTT0=
EXTT1=
EXTT2=
EXTT3=
EXTT4=
EXTT5=
EXTT6=
EXTT7=
EXTT8=
EXTT9=
EXTT10=
EXTT11=
EXTT12=
EXTT13=
PLAYORDER=
